HIERARCHY
ROOT RootJoint
{
    OFFSET   0.000000   0.000000   0.000000
    CHANNELS 6 Xposition Yposition Zposition Xrotation Yrotation Zrotation
    JOINT pelvis_lowerback
    {
        OFFSET   0.000000   0.093605   0.000000
        CHANNELS 3 Xrotation Yrotation Zrotation
        JOINT lowerback_torso
        {
            OFFSET   0.000000   0.100000   0.000000
            CHANNELS 3 Xrotation Yrotation Zrotation
            JOINT torso_head
            {
                OFFSET   0.000000   0.282350   0.000000
                CHANNELS 3 Xrotation Yrotation Zrotation
                End Site
                {
                    OFFSET   0.000000   0.192650   0.000000
                }
            }
            JOINT rTorso_Clavicle
            {
                OFFSET  -0.001000   0.157500   0.000000
                CHANNELS 3 Xrotation Yrotation Zrotation
                JOINT rShoulder
                {
                    OFFSET  -0.117647   0.000000   0.000000
                    CHANNELS 3 Xrotation Yrotation Zrotation
                    JOINT rElbow
                    {
                        OFFSET  -0.245000   0.000000   0.000000
                        CHANNELS 3 Xrotation Yrotation Zrotation
                        JOINT rWrist
                        {
                            OFFSET  -0.240000   0.000000   0.000000
                            CHANNELS 3 Xrotation Yrotation Zrotation
                            End Site
                            {
                                OFFSET  -0.116353  -0.002500   0.000000
                            }
                        }
                    }
                }
            }
            JOINT lTorso_Clavicle
            {
                OFFSET   0.001000   0.157500   0.000000
                CHANNELS 3 Xrotation Yrotation Zrotation
                JOINT lShoulder
                {
                    OFFSET   0.117647   0.000000   0.000000
                    CHANNELS 3 Xrotation Yrotation Zrotation
                    JOINT lElbow
                    {
                        OFFSET   0.245000   0.000000   0.000000
                        CHANNELS 3 Xrotation Yrotation Zrotation
                        JOINT lWrist
                        {
                            OFFSET   0.240000   0.000000   0.000000
                            CHANNELS 3 Xrotation Yrotation Zrotation
                            End Site
                            {
                                OFFSET   0.116353  -0.002500   0.000000
                            }
                        }
                    }
                }
            }
        }
    }
    JOINT rHip
    {
        OFFSET  -0.100000  -0.051395   0.000000
        CHANNELS 3 Xrotation Yrotation Zrotation
        JOINT rKnee
        {
            OFFSET   0.000000  -0.410000   0.000000
            CHANNELS 3 Xrotation Yrotation Zrotation
            JOINT rAnkle
            {
                OFFSET   0.000000  -0.390000   0.000000
                CHANNELS 3 Xrotation Yrotation Zrotation
                JOINT rToeJoint
                {
                    OFFSET   0.000000  -0.050000   0.130000
                    CHANNELS 3 Xrotation Yrotation Zrotation
                    End Site
                    {
                        OFFSET  -0.010000   0.002000   0.060000
                    }
                }
            }
        }
    }
    JOINT lHip
    {
        OFFSET   0.100000  -0.051395   0.000000
        CHANNELS 3 Xrotation Yrotation Zrotation
        JOINT lKnee
        {
            OFFSET   0.000000  -0.410000   0.000000
            CHANNELS 3 Xrotation Yrotation Zrotation
            JOINT lAnkle
            {
                OFFSET   0.000000  -0.390000   0.000000
                CHANNELS 3 Xrotation Yrotation Zrotation
                JOINT lToeJoint
                {
                    OFFSET   0.000000  -0.050000   0.130000
                    CHANNELS 3 Xrotation Yrotation Zrotation
                    End Site
                    {
                        OFFSET   0.010000   0.002000   0.060000
                    }
                }
            }
        }
    }
}
MOTION
Frames: 14
Frame Time:   0.008333
 -2.376719   0.925631   3.975860   0.000000   0.000000   0.000000   0.000000   0.000000   0.000000   0.000000   0.000000   0.000000   0.000000   0.000000   0.000000   0.000000   0.000000   0.000000   0.000000   0.000000   0.000000   0.000000   0.000000   0.000000   0.000000   0.000000   0.000000   0.000000   0.000000   0.000000   0.000000   0.000000   0.000000   0.000000   0.000000   0.000000   0.000000   0.000000   0.000000   0.000000   0.000000   0.000000   0.000000   0.000000   0.000000   0.000000   0.000000   0.000000   0.000000   0.000000   0.000000   0.000000   0.000000   0.000000   0.000000   0.000000   0.000000   0.000000   0.000000   0.000000   0.000000   0.000000   0.000000
 -2.376718   0.925798   3.975331  -0.214734  -0.296057   0.052826   0.465846   0.191848  -0.072925   0.224606  -0.061655  -0.085838  -0.408272   0.169330   0.105564   0.285440  -0.300279   0.157381   0.192383  -0.115274   2.056566   0.015617   0.845865  -0.007071   0.187376   0.177437  -2.654380   0.226262   0.338589  -0.060442   0.121611   0.593908  -1.501279   0.005288  -0.364658   0.002609   0.145847  -0.654427   2.119023  -0.416250  -0.201926  -0.232444   1.930559   0.002874  -0.008462  -1.328595  -0.591673   0.160374  -0.086880  -0.000019   0.000826  -0.142735   0.173471   0.092597   0.931354  -0.001187  -0.000984  -0.987651   0.188993   0.166027   0.369134  -0.000996   0.000216
 -2.376669   0.926070   3.974893  -0.481447  -0.651095   0.091578   0.996152   0.404685  -0.146674   0.569211  -0.075414  -0.149858  -0.752957   0.326892   0.189331   0.563635  -0.689577   0.958210   0.382104  -0.281837   4.492618   0.034299   1.632482  -0.012839   0.414351   0.498606  -4.653572   0.451625   0.837752  -0.651796   0.261698   1.285295  -3.323263   0.010665  -0.660153   0.004512   0.328966  -1.217007   3.713376  -0.746767  -0.423791  -0.617301   3.964767   0.007591  -0.017482  -2.558963  -1.160853   0.294594  -0.188337  -0.000207   0.001680  -0.293224   0.337288   0.319160   1.904131  -0.003248  -0.002321  -1.911050   0.366952   0.326478   0.667758  -0.001894   0.000156
 -2.376540   0.926116   3.974576  -0.732186  -1.014896   0.107609   1.524763   0.632234  -0.198715   0.941139  -0.054798  -0.181261  -1.048406   0.472547   0.259299   0.833451  -1.111459   2.157573   0.569377  -0.477170   7.102458   0.051214   2.348482  -0.016698   0.637862   0.754942  -5.908707   0.671787   1.403131  -1.590613   0.421226   2.003763  -5.313750   0.014861  -0.904891   0.005641   0.510031  -1.604297   4.682633  -1.004198  -0.637143  -1.122033   5.907366   0.012874  -0.024799  -3.703283  -1.698033   0.406652  -0.276914  -0.000457   0.002218  -0.487137   0.489190   0.660011   2.814704  -0.005519  -0.003341  -2.773066   0.531865   0.480026   0.937747  -0.002704   0.000052
 -2.376331   0.925700   3.974385  -0.956107  -1.366203   0.103412   2.035227   0.868532  -0.224325   1.308962  -0.010506  -0.180858  -1.310120   0.608084   0.321833   1.098086  -1.535944   3.588103   0.756316  -0.680448   9.768169   0.064684   3.003908  -0.018959   0.848019   0.938163  -6.607615   0.887557   1.989504  -2.735894   0.600365   2.716223  -7.373535   0.017687  -1.113632   0.006177   0.680690  -1.864261   5.178390  -1.201076  -0.837583  -1.723656   7.737826   0.018054  -0.030260  -4.770330  -2.203580   0.499428  -0.361425  -0.000744   0.002575  -0.724766   0.629423   1.090955   3.650347  -0.007626  -0.003904  -3.578966   0.684702   0.626499   1.179881  -0.003357  -0.000026
 -2.376054   0.924652   3.974316  -1.154695  -1.694896   0.082927   2.519926   1.108840  -0.224125   1.660666   0.050800  -0.151798  -1.545536   0.734454   0.379850   1.358361  -1.947801   5.137416   0.943002  -0.879992  12.413146   0.074335   3.607245  -0.019991   1.043909   1.068465  -6.924990   1.099337   2.574282  -3.987154   0.796936   3.406283  -9.433436   0.019283  -1.295502   0.006287   0.840083  -2.039804   5.351821  -1.344795  -1.023932  -2.401944   9.459879   0.022748  -0.034078  -5.765880  -2.678582   0.575512  -0.442243  -0.001033   0.002788  -0.997946   0.757621   1.590578   4.414614  -0.009391  -0.004059  -4.332529   0.826320   0.765866   1.397267  -0.003839  -0.000061
 -2.375724   0.922858   3.974364  -1.331645  -1.996508   0.049601   2.974702   1.350007  -0.200349   1.990885   0.124913  -0.097523  -1.759231   0.852345   0.434729   1.614038  -2.340614   6.729900   1.128631  -1.070536  14.988457   0.080393   4.164632  -0.020118   1.226719   1.162184  -6.991050   1.307550   3.146951  -5.274640   1.007847   4.066858 -11.447055   0.019871  -1.455952   0.006097   0.988867  -2.157156   5.319280  -1.441332  -1.196137  -3.138429  11.080120   0.026744  -0.036528  -6.694893  -3.124296   0.637226  -0.518606  -0.001297   0.002880  -1.298010   0.873465   2.140780   5.113794  -0.010746  -0.003908  -5.037050   0.957498   0.898196   1.593220  -0.004158  -0.000059
 -2.375185   0.921910   3.974444  -1.517664  -2.214182   0.254036   3.549115   1.518298  -0.335466   2.171609   0.156398  -0.162058  -2.141436   0.819147   0.497094   1.891341  -2.672107   8.118558   1.498332  -1.051640  17.294086   0.079169   4.612189  -0.020054   1.433666   1.165996  -6.280057   1.537820   3.722814  -6.156978   0.972939   4.684565 -13.423793   0.017018  -1.502003   0.005016   1.138378  -2.266604   4.733207  -1.466310  -1.581793  -4.091356  12.415139   0.027608  -0.038614  -7.121636  -3.745523   0.741379  -0.508840  -0.000986   0.002192  -1.599342   1.355641   1.939027   6.116756  -0.008375  -0.000539  -5.132365   1.281274   0.814257   1.665328  -0.003265   0.000328
 -2.375133   0.921208   3.974494  -1.664967  -2.456731   0.364733   4.084973   1.706892  -0.428335   2.315725   0.213964  -0.202171  -2.516632   0.780627   0.554040   2.147104  -2.946388   9.291378   1.835534  -0.999456  19.370175   0.075732   5.038002  -0.019497   1.642235   1.190370  -5.566068   1.757380   4.267753  -6.832055   0.956099   5.275047 -15.179637   0.014372  -1.538592   0.004096   1.268988  -2.327987   4.172271  -1.566049  -1.901222  -4.769391  13.545040   0.025479  -0.038213  -7.586084  -4.262372   0.868101  -1.334253  -0.003867   0.010033  -1.842840   1.713595   1.843237   6.965848  -0.006624   0.000615  -5.361547   1.484948   0.905718   1.778707  -0.002699   0.000594
 -2.375395   0.920598   3.974541  -1.797962  -2.688665   0.440360   4.592372   1.897634  -0.512102   2.449005   0.285646  -0.234304  -2.870376   0.743646   0.606234   2.383108  -3.186114  10.283991   2.142413  -0.931581  21.237859   0.070880   5.440523  -0.018618   1.844688   1.240660  -4.987658   1.967946   4.781830  -7.350814   0.954654   5.834942 -16.740428   0.012053  -1.570027   0.003332   1.389785  -2.367479   3.755897  -1.704003  -2.221827  -5.312263  14.606734   0.022549  -0.037203  -7.994135  -4.771422   0.966911  -1.733308  -0.004403   0.011937  -2.046798   2.029289   1.802449   7.715698  -0.005355   0.001195  -5.619977   1.663394   1.009976   1.872325  -0.002256   0.000702
 -2.375883   0.920026   3.974601  -1.921051  -2.885336   0.503333   5.072310   2.080699  -0.593438   2.577680   0.360060  -0.265766  -3.201484   0.708572   0.654115   2.603313  -3.404214  11.126960   2.423337  -0.858374  22.921750   0.065224   5.818268  -0.017543   2.039347   1.302349  -4.547968   2.169542   5.265945  -7.750018   0.965466   6.363789 -18.135789   0.010059  -1.597557   0.002703   1.502916  -2.393827   3.476616  -1.850053  -2.533026  -5.774261  15.607475   0.019497  -0.035493  -8.363050  -5.257463   1.049633  -1.946269  -0.004138   0.011505  -2.228679   2.318675   1.790861   8.398220  -0.004412   0.001643  -5.883255   1.825883   1.114439   1.954641  -0.001900   0.000757
 -2.376551   0.919474   3.974675  -2.034157  -3.038582   0.562731   5.525699   2.253469  -0.673684   2.702884   0.432473  -0.298771  -3.511102   0.675482   0.698252   2.810303  -3.606972  11.846037   2.681785  -0.785112  24.444529   0.059229   6.171164  -0.016368   2.225525   1.364578  -4.225717   2.362062   5.721389  -8.057582   0.985961   6.862130 -19.390574   0.008366  -1.621847   0.002186   1.609463  -2.410448   3.307268  -1.992161  -2.829275  -6.179505  16.547586   0.016608  -0.033183  -8.701800  -5.716168   1.120871  -2.070639  -0.003628   0.010250  -2.397946   2.586921   1.797172   9.027346  -0.003699   0.002069  -6.142183   1.975224   1.216015   2.028738  -0.001612   0.000787
 -2.377376   0.918933   3.974761  -2.136953  -3.146993   0.622834   5.954169   2.415492  -0.753123   2.824952   0.501178  -0.333890  -3.800588   0.644363   0.739113   3.005503  -3.797123  12.462376   2.920335  -0.714077  25.825855   0.053228   6.500111  -0.015166   2.403243   1.421953  -3.998481   2.545367   6.149338  -8.294515   1.013963   7.330786 -20.524837   0.006939  -1.643417   0.001763   1.710180  -2.419432   3.222556  -2.126162  -3.108645  -6.539928  17.428155   0.013994  -0.030454  -9.015773  -6.146395   1.183324  -2.155511  -0.003093   0.008846  -2.559417   2.836636   1.815680   9.609942  -0.003153   0.002488  -6.393015   2.112995   1.313550   2.096073  -0.001376   0.000804
 -2.378343   0.918438   3.974913  -2.288972  -3.161317   0.691494   6.381574   2.501688  -0.854611   2.922092   0.593208  -0.338209  -4.034443   0.534816   0.787226   3.061523  -3.999310  12.906598   3.182262  -0.591845  26.936983   0.047388   6.844605  -0.013956   2.516768   1.332825  -3.507812   2.721946   6.522134  -8.439361   1.011169   7.650083 -21.568837   0.006413  -1.732014   0.001473   1.780518  -2.219766   3.134855  -2.174700  -3.366509  -6.786622  17.941356   0.011219  -0.025951  -8.917481  -6.403146   1.327143  -3.563274  -0.003194   0.014166  -2.588350   3.002108   1.817830  10.002487  -0.002649   0.002575  -6.487100   2.135377   1.450335   2.139282  -0.001174   0.000714
